<?xml version="1.0" encoding="utf-8"?>
<!-- Generator: Adobe Illustrator 25.0.0, SVG Export Plug-In . SVG Version: 6.00 Build 0)  -->
<svg version="1.1" id="Laag_1" xmlns="http://www.w3.org/2000/svg" xmlns:xlink="http://www.w3.org/1999/xlink" x="0px" y="0px"
	 viewBox="0 0 600 600" style="enable-background:new 0 0 600 600;" xml:space="preserve">
<style type="text/css">
	.st0{fill:#333333;}
	.st1{fill:#EE3A43;}
	.st2{fill:#03BBB6;}
	.st3{fill:#2196F3;}
	.st4{fill:#F8B62E;}
</style>
<g>
	<path class="st0" d="M600.5,549.5c0,27.5-22.5,50-50,50h-500c-27.5,0-50-22.5-50-50v-500c0-27.5,22.5-50,50-50h500
		c27.5,0,50,22.5,50,50V549.5z"/>
</g>
<g id="XMLID_1_">
	<path id="XMLID_570_" class="st1" d="M318.8,332.3V460h80.6c34.4,0,62.2-27.9,62.2-62.2v-80.6H334
		C325.6,317.2,318.8,324,318.8,332.3z"/>
	<path id="XMLID_567_" class="st2" d="M140.3,460h142.8V332.3c0-8.4-6.8-15.2-15.2-15.2H140.3V460z"/>
	<path id="XMLID_564_" class="st3" d="M140.3,200.9v80.6H268c8.4,0,15.2-6.8,15.2-15.2V138.7h-80.6
		C168.2,138.7,140.3,166.6,140.3,200.9z"/>
	<path id="XMLID_561_" class="st4" d="M318.8,138.7v127.7c0,8.4,6.8,15.2,15.2,15.2h127.7V138.7H318.8z"/>
</g>
</svg>
